<svg width="90" height="115" viewBox="0 0 90 115" fill="none" xmlns="http://www.w3.org/2000/svg">
<g opacity="0.3">
<mask id="mask0_21_5" style="mask-type:alpha" maskUnits="userSpaceOnUse" x="18" y="0" width="12" height="11">
<path d="M23.7905 10.425C26.6781 10.425 29.0189 8.09121 29.0189 5.21245C29.0189 2.33368 26.6781 0 23.7905 0C20.903 0 18.5621 2.33368 18.5621 5.21245C18.5621 8.09121 20.903 10.425 23.7905 10.425Z" fill="url(#paint0_linear_21_5)"/>
</mask>
<g mask="url(#mask0_21_5)">
<path d="M23.7905 10.425C26.6781 10.425 29.0189 8.09121 29.0189 5.21245C29.0189 2.33368 26.6781 0 23.7905 0C20.903 0 18.5621 2.33368 18.5621 5.21245C18.5621 8.09121 20.903 10.425 23.7905 10.425Z" fill="url(#paint1_linear_21_5)"/>
</g>
<mask id="mask1_21_5" style="mask-type:alpha" maskUnits="userSpaceOnUse" x="48" y="0" width="12" height="11">
<path d="M54.0716 10.425C56.9592 10.425 59.3 8.09121 59.3 5.21245C59.3 2.33368 56.9592 0 54.0716 0C51.184 0 48.8432 2.33368 48.8432 5.21245C48.8432 8.09121 51.184 10.425 54.0716 10.425Z" fill="url(#paint2_linear_21_5)"/>
</mask>
<g mask="url(#mask1_21_5)">
<path d="M54.0716 10.425C56.9592 10.425 59.3 8.09121 59.3 5.21245C59.3 2.33368 56.9592 0 54.0716 0C51.184 0 48.8432 2.33368 48.8432 5.21245C48.8432 8.09121 51.184 10.425 54.0716 10.425Z" fill="url(#paint3_linear_21_5)"/>
</g>
<mask id="mask2_21_5" style="mask-type:alpha" maskUnits="userSpaceOnUse" x="79" y="0" width="11" height="11">
<path d="M84.3526 10.425C87.2402 10.425 89.581 8.09121 89.581 5.21245C89.581 2.33368 87.2402 0 84.3526 0C81.4651 0 79.1243 2.33368 79.1243 5.21245C79.1243 8.09121 81.4651 10.425 84.3526 10.425Z" fill="url(#paint4_linear_21_5)"/>
</mask>
<g mask="url(#mask2_21_5)">
<path d="M84.3526 10.425C87.2402 10.425 89.581 8.09121 89.581 5.21245C89.581 2.33368 87.2402 0 84.3526 0C81.4651 0 79.1243 2.33368 79.1243 5.21245C79.1243 8.09121 81.4651 10.425 84.3526 10.425Z" fill="url(#paint5_linear_21_5)"/>
</g>
<mask id="mask3_21_5" style="mask-type:alpha" maskUnits="userSpaceOnUse" x="18" y="26" width="12" height="11">
<path d="M23.7905 36.5958C26.6781 36.5958 29.0189 34.2621 29.0189 31.3834C29.0189 28.5046 26.6781 26.171 23.7905 26.171C20.903 26.171 18.5621 28.5046 18.5621 31.3834C18.5621 34.2621 20.903 36.5958 23.7905 36.5958Z" fill="url(#paint6_linear_21_5)"/>
</mask>
<g mask="url(#mask3_21_5)">
<path d="M23.7905 36.5958C26.6781 36.5958 29.0189 34.2621 29.0189 31.3834C29.0189 28.5046 26.6781 26.171 23.7905 26.171C20.903 26.171 18.5621 28.5046 18.5621 31.3834C18.5621 34.2621 20.903 36.5958 23.7905 36.5958Z" fill="url(#paint7_linear_21_5)"/>
</g>
<mask id="mask4_21_5" style="mask-type:alpha" maskUnits="userSpaceOnUse" x="48" y="26" width="12" height="11">
<path d="M54.0716 36.5958C56.9592 36.5958 59.3 34.2621 59.3 31.3834C59.3 28.5046 56.9592 26.171 54.0716 26.171C51.184 26.171 48.8432 28.5046 48.8432 31.3834C48.8432 34.2621 51.184 36.5958 54.0716 36.5958Z" fill="url(#paint8_linear_21_5)"/>
</mask>
<g mask="url(#mask4_21_5)">
<path d="M54.0716 36.5958C56.9592 36.5958 59.3 34.2621 59.3 31.3834C59.3 28.5046 56.9592 26.171 54.0716 26.171C51.184 26.171 48.8432 28.5046 48.8432 31.3834C48.8432 34.2621 51.184 36.5958 54.0716 36.5958Z" fill="url(#paint9_linear_21_5)"/>
</g>
<mask id="mask5_21_5" style="mask-type:alpha" maskUnits="userSpaceOnUse" x="79" y="26" width="11" height="11">
<path d="M84.3526 36.5958C87.2402 36.5958 89.581 34.2621 89.581 31.3834C89.581 28.5046 87.2402 26.171 84.3526 26.171C81.4651 26.171 79.1243 28.5046 79.1243 31.3834C79.1243 34.2621 81.4651 36.5958 84.3526 36.5958Z" fill="url(#paint10_linear_21_5)"/>
</mask>
<g mask="url(#mask5_21_5)">
<path d="M84.3526 36.5958C87.2402 36.5958 89.581 34.2621 89.581 31.3834C89.581 28.5046 87.2402 26.171 84.3526 26.171C81.4651 26.171 79.1243 28.5046 79.1243 31.3834C79.1243 34.2621 81.4651 36.5958 84.3526 36.5958Z" fill="url(#paint11_linear_21_5)"/>
</g>
<mask id="mask6_21_5" style="mask-type:alpha" maskUnits="userSpaceOnUse" x="18" y="52" width="12" height="11">
<path d="M23.7905 62.7125C26.6781 62.7125 29.0189 60.3788 29.0189 57.5C29.0189 54.6212 26.6781 52.2875 23.7905 52.2875C20.903 52.2875 18.5621 54.6212 18.5621 57.5C18.5621 60.3788 20.903 62.7125 23.7905 62.7125Z" fill="url(#paint12_linear_21_5)"/>
</mask>
<g mask="url(#mask6_21_5)">
<path d="M23.7905 62.7125C26.6781 62.7125 29.0189 60.3788 29.0189 57.5C29.0189 54.6212 26.6781 52.2875 23.7905 52.2875C20.903 52.2875 18.5621 54.6212 18.5621 57.5C18.5621 60.3788 20.903 62.7125 23.7905 62.7125Z" fill="url(#paint13_linear_21_5)"/>
</g>
<mask id="mask7_21_5" style="mask-type:alpha" maskUnits="userSpaceOnUse" x="48" y="52" width="12" height="11">
<path d="M54.0716 62.7125C56.9592 62.7125 59.3 60.3788 59.3 57.5C59.3 54.6212 56.9592 52.2875 54.0716 52.2875C51.184 52.2875 48.8432 54.6212 48.8432 57.5C48.8432 60.3788 51.184 62.7125 54.0716 62.7125Z" fill="url(#paint14_linear_21_5)"/>
</mask>
<g mask="url(#mask7_21_5)">
<path d="M54.0716 62.7125C56.9592 62.7125 59.3 60.3788 59.3 57.5C59.3 54.6212 56.9592 52.2875 54.0716 52.2875C51.184 52.2875 48.8432 54.6212 48.8432 57.5C48.8432 60.3788 51.184 62.7125 54.0716 62.7125Z" fill="url(#paint15_linear_21_5)"/>
</g>
<mask id="mask8_21_5" style="mask-type:alpha" maskUnits="userSpaceOnUse" x="79" y="52" width="11" height="11">
<path d="M84.3526 62.7125C87.2402 62.7125 89.581 60.3788 89.581 57.5C89.581 54.6212 87.2402 52.2875 84.3526 52.2875C81.4651 52.2875 79.1243 54.6212 79.1243 57.5C79.1243 60.3788 81.4651 62.7125 84.3526 62.7125Z" fill="url(#paint16_linear_21_5)"/>
</mask>
<g mask="url(#mask8_21_5)">
<path d="M84.3526 62.7125C87.2402 62.7125 89.581 60.3788 89.581 57.5C89.581 54.6212 87.2402 52.2875 84.3526 52.2875C81.4651 52.2875 79.1243 54.6212 79.1243 57.5C79.1243 60.3788 81.4651 62.7125 84.3526 62.7125Z" fill="url(#paint17_linear_21_5)"/>
</g>
<mask id="mask9_21_5" style="mask-type:alpha" maskUnits="userSpaceOnUse" x="18" y="78" width="12" height="11">
<path d="M23.7905 88.8834C26.6781 88.8834 29.0189 86.5496 29.0189 83.6709C29.0189 80.7921 26.6781 78.4584 23.7905 78.4584C20.903 78.4584 18.5621 80.7921 18.5621 83.6709C18.5621 86.5496 20.903 88.8834 23.7905 88.8834Z" fill="url(#paint18_linear_21_5)"/>
</mask>
<g mask="url(#mask9_21_5)">
<path d="M23.7905 88.8834C26.6781 88.8834 29.0189 86.5496 29.0189 83.6709C29.0189 80.7921 26.6781 78.4584 23.7905 78.4584C20.903 78.4584 18.5621 80.7921 18.5621 83.6709C18.5621 86.5496 20.903 88.8834 23.7905 88.8834Z" fill="url(#paint19_linear_21_5)"/>
</g>
<mask id="mask10_21_5" style="mask-type:alpha" maskUnits="userSpaceOnUse" x="48" y="78" width="12" height="11">
<path d="M54.0716 88.8834C56.9592 88.8834 59.3 86.5496 59.3 83.6709C59.3 80.7921 56.9592 78.4584 54.0716 78.4584C51.184 78.4584 48.8432 80.7921 48.8432 83.6709C48.8432 86.5496 51.184 88.8834 54.0716 88.8834Z" fill="url(#paint20_linear_21_5)"/>
</mask>
<g mask="url(#mask10_21_5)">
<path d="M54.0716 88.8834C56.9592 88.8834 59.3 86.5496 59.3 83.6709C59.3 80.7921 56.9592 78.4584 54.0716 78.4584C51.184 78.4584 48.8432 80.7921 48.8432 83.6709C48.8432 86.5496 51.184 88.8834 54.0716 88.8834Z" fill="url(#paint21_linear_21_5)"/>
</g>
<mask id="mask11_21_5" style="mask-type:alpha" maskUnits="userSpaceOnUse" x="79" y="78" width="11" height="11">
<path d="M84.3526 88.8834C87.2402 88.8834 89.581 86.5496 89.581 83.6709C89.581 80.7921 87.2402 78.4584 84.3526 78.4584C81.4651 78.4584 79.1243 80.7921 79.1243 83.6709C79.1243 86.5496 81.4651 88.8834 84.3526 88.8834Z" fill="url(#paint22_linear_21_5)"/>
</mask>
<g mask="url(#mask11_21_5)">
<path d="M84.3526 88.8834C87.2402 88.8834 89.581 86.5496 89.581 83.6709C89.581 80.7921 87.2402 78.4584 84.3526 78.4584C81.4651 78.4584 79.1243 80.7921 79.1243 83.6709C79.1243 86.5496 81.4651 88.8834 84.3526 88.8834Z" fill="url(#paint23_linear_21_5)"/>
</g>
<mask id="mask12_21_5" style="mask-type:alpha" maskUnits="userSpaceOnUse" x="18" y="104" width="12" height="11">
<path d="M23.7905 115C26.6781 115 29.0189 112.666 29.0189 109.788C29.0189 106.909 26.6781 104.575 23.7905 104.575C20.903 104.575 18.5621 106.909 18.5621 109.788C18.5621 112.666 20.903 115 23.7905 115Z" fill="url(#paint24_linear_21_5)"/>
</mask>
<g mask="url(#mask12_21_5)">
<path d="M23.7905 115C26.6781 115 29.0189 112.666 29.0189 109.788C29.0189 106.909 26.6781 104.575 23.7905 104.575C20.903 104.575 18.5621 106.909 18.5621 109.788C18.5621 112.666 20.903 115 23.7905 115Z" fill="url(#paint25_linear_21_5)"/>
</g>
<mask id="mask13_21_5" style="mask-type:alpha" maskUnits="userSpaceOnUse" x="48" y="104" width="12" height="11">
<path d="M54.0716 115C56.9592 115 59.3 112.666 59.3 109.788C59.3 106.909 56.9592 104.575 54.0716 104.575C51.184 104.575 48.8432 106.909 48.8432 109.788C48.8432 112.666 51.184 115 54.0716 115Z" fill="url(#paint26_linear_21_5)"/>
</mask>
<g mask="url(#mask13_21_5)">
<path d="M54.0716 115C56.9592 115 59.3 112.666 59.3 109.788C59.3 106.909 56.9592 104.575 54.0716 104.575C51.184 104.575 48.8432 106.909 48.8432 109.788C48.8432 112.666 51.184 115 54.0716 115Z" fill="url(#paint27_linear_21_5)"/>
</g>
<mask id="mask14_21_5" style="mask-type:alpha" maskUnits="userSpaceOnUse" x="79" y="104" width="11" height="11">
<path d="M84.3526 115C87.2402 115 89.581 112.666 89.581 109.788C89.581 106.909 87.2402 104.575 84.3526 104.575C81.4651 104.575 79.1243 106.909 79.1243 109.788C79.1243 112.666 81.4651 115 84.3526 115Z" fill="url(#paint28_linear_21_5)"/>
</mask>
<g mask="url(#mask14_21_5)">
<path d="M84.3526 115C87.2402 115 89.581 112.666 89.581 109.788C89.581 106.909 87.2402 104.575 84.3526 104.575C81.4651 104.575 79.1243 106.909 79.1243 109.788C79.1243 112.666 81.4651 115 84.3526 115Z" fill="url(#paint29_linear_21_5)"/>
</g>
</g>
<defs>
<linearGradient id="paint0_linear_21_5" x1="65.4049" y1="110.551" x2="-5.99666" y2="-71.2526" gradientUnits="userSpaceOnUse">
<stop/>
<stop offset="1" stop-color="white"/>
</linearGradient>
<linearGradient id="paint1_linear_21_5" x1="65.4049" y1="110.551" x2="-5.99666" y2="-71.2526" gradientUnits="userSpaceOnUse">
<stop stop-color="#97C3F9"/>
<stop offset="1" stop-color="#93C1F9"/>
</linearGradient>
<linearGradient id="paint2_linear_21_5" x1="91.6091" y1="100.259" x2="20.2075" y2="-81.5444" gradientUnits="userSpaceOnUse">
<stop/>
<stop offset="1" stop-color="white"/>
</linearGradient>
<linearGradient id="paint3_linear_21_5" x1="91.6091" y1="100.259" x2="20.2075" y2="-81.5444" gradientUnits="userSpaceOnUse">
<stop stop-color="#97C3F9"/>
<stop offset="1" stop-color="#93C1F9"/>
</linearGradient>
<linearGradient id="paint4_linear_21_5" x1="117.813" y1="89.9679" x2="46.4119" y2="-91.8359" gradientUnits="userSpaceOnUse">
<stop/>
<stop offset="1" stop-color="white"/>
</linearGradient>
<linearGradient id="paint5_linear_21_5" x1="117.813" y1="89.9679" x2="46.4119" y2="-91.8359" gradientUnits="userSpaceOnUse">
<stop stop-color="#97C3F9"/>
<stop offset="1" stop-color="#93C1F9"/>
</linearGradient>
<linearGradient id="paint6_linear_21_5" x1="56.4624" y1="114.062" x2="-14.9379" y2="-67.7403" gradientUnits="userSpaceOnUse">
<stop/>
<stop offset="1" stop-color="white"/>
</linearGradient>
<linearGradient id="paint7_linear_21_5" x1="56.4624" y1="114.062" x2="-14.9379" y2="-67.7403" gradientUnits="userSpaceOnUse">
<stop stop-color="#97C3F9"/>
<stop offset="1" stop-color="#93C1F9"/>
</linearGradient>
<linearGradient id="paint8_linear_21_5" x1="82.6667" y1="103.771" x2="11.2663" y2="-78.0318" gradientUnits="userSpaceOnUse">
<stop/>
<stop offset="1" stop-color="white"/>
</linearGradient>
<linearGradient id="paint9_linear_21_5" x1="82.6667" y1="103.771" x2="11.2663" y2="-78.0318" gradientUnits="userSpaceOnUse">
<stop stop-color="#97C3F9"/>
<stop offset="1" stop-color="#93C1F9"/>
</linearGradient>
<linearGradient id="paint10_linear_21_5" x1="108.871" y1="93.4794" x2="37.4707" y2="-88.3231" gradientUnits="userSpaceOnUse">
<stop/>
<stop offset="1" stop-color="white"/>
</linearGradient>
<linearGradient id="paint11_linear_21_5" x1="108.871" y1="93.4794" x2="37.4707" y2="-88.3231" gradientUnits="userSpaceOnUse">
<stop stop-color="#97C3F9"/>
<stop offset="1" stop-color="#93C1F9"/>
</linearGradient>
<linearGradient id="paint12_linear_21_5" x1="47.5201" y1="117.575" x2="-23.8815" y2="-64.2288" gradientUnits="userSpaceOnUse">
<stop/>
<stop offset="1" stop-color="white"/>
</linearGradient>
<linearGradient id="paint13_linear_21_5" x1="47.5201" y1="117.575" x2="-23.8815" y2="-64.2288" gradientUnits="userSpaceOnUse">
<stop stop-color="#97C3F9"/>
<stop offset="1" stop-color="#93C1F9"/>
</linearGradient>
<linearGradient id="paint14_linear_21_5" x1="73.7243" y1="107.283" x2="2.32272" y2="-74.5205" gradientUnits="userSpaceOnUse">
<stop/>
<stop offset="1" stop-color="white"/>
</linearGradient>
<linearGradient id="paint15_linear_21_5" x1="73.7243" y1="107.283" x2="2.32272" y2="-74.5205" gradientUnits="userSpaceOnUse">
<stop stop-color="#97C3F9"/>
<stop offset="1" stop-color="#93C1F9"/>
</linearGradient>
<linearGradient id="paint16_linear_21_5" x1="99.9287" y1="96.9919" x2="28.5271" y2="-84.812" gradientUnits="userSpaceOnUse">
<stop/>
<stop offset="1" stop-color="white"/>
</linearGradient>
<linearGradient id="paint17_linear_21_5" x1="99.9287" y1="96.9919" x2="28.5271" y2="-84.812" gradientUnits="userSpaceOnUse">
<stop stop-color="#97C3F9"/>
<stop offset="1" stop-color="#93C1F9"/>
</linearGradient>
<linearGradient id="paint18_linear_21_5" x1="38.5777" y1="121.087" x2="-32.8239" y2="-60.7168" gradientUnits="userSpaceOnUse">
<stop/>
<stop offset="1" stop-color="white"/>
</linearGradient>
<linearGradient id="paint19_linear_21_5" x1="38.5777" y1="121.087" x2="-32.8239" y2="-60.7168" gradientUnits="userSpaceOnUse">
<stop stop-color="#97C3F9"/>
<stop offset="1" stop-color="#93C1F9"/>
</linearGradient>
<linearGradient id="paint20_linear_21_5" x1="64.782" y1="110.795" x2="-6.61963" y2="-71.0084" gradientUnits="userSpaceOnUse">
<stop/>
<stop offset="1" stop-color="white"/>
</linearGradient>
<linearGradient id="paint21_linear_21_5" x1="64.782" y1="110.795" x2="-6.61963" y2="-71.0084" gradientUnits="userSpaceOnUse">
<stop stop-color="#97C3F9"/>
<stop offset="1" stop-color="#93C1F9"/>
</linearGradient>
<linearGradient id="paint22_linear_21_5" x1="90.9863" y1="100.504" x2="19.5847" y2="-81.3" gradientUnits="userSpaceOnUse">
<stop/>
<stop offset="1" stop-color="white"/>
</linearGradient>
<linearGradient id="paint23_linear_21_5" x1="90.9863" y1="100.504" x2="19.5847" y2="-81.3" gradientUnits="userSpaceOnUse">
<stop stop-color="#97C3F9"/>
<stop offset="1" stop-color="#93C1F9"/>
</linearGradient>
<linearGradient id="paint24_linear_21_5" x1="29.6353" y1="124.599" x2="-41.7663" y2="-57.2047" gradientUnits="userSpaceOnUse">
<stop/>
<stop offset="1" stop-color="white"/>
</linearGradient>
<linearGradient id="paint25_linear_21_5" x1="29.6353" y1="124.599" x2="-41.7663" y2="-57.2047" gradientUnits="userSpaceOnUse">
<stop stop-color="#97C3F9"/>
<stop offset="1" stop-color="#93C1F9"/>
</linearGradient>
<linearGradient id="paint26_linear_21_5" x1="55.8397" y1="114.307" x2="-15.562" y2="-67.4964" gradientUnits="userSpaceOnUse">
<stop/>
<stop offset="1" stop-color="white"/>
</linearGradient>
<linearGradient id="paint27_linear_21_5" x1="55.8397" y1="114.307" x2="-15.562" y2="-67.4964" gradientUnits="userSpaceOnUse">
<stop stop-color="#97C3F9"/>
<stop offset="1" stop-color="#93C1F9"/>
</linearGradient>
<linearGradient id="paint28_linear_21_5" x1="82.044" y1="104.016" x2="10.6424" y2="-77.7879" gradientUnits="userSpaceOnUse">
<stop/>
<stop offset="1" stop-color="white"/>
</linearGradient>
<linearGradient id="paint29_linear_21_5" x1="82.044" y1="104.016" x2="10.6424" y2="-77.7879" gradientUnits="userSpaceOnUse">
<stop stop-color="#97C3F9"/>
<stop offset="1" stop-color="#93C1F9"/>
</linearGradient>
</defs>
</svg>
