<svg width="161" height="41" viewBox="0 0 161 41" fill="none" xmlns="http://www.w3.org/2000/svg">
<path d="M59.2514 30V15.624H53.6594V13.08H67.9394V15.624H62.3474V30H59.2514ZM67.9878 30V20.976C67.9878 20.464 67.9718 19.944 67.9398 19.416C67.9238 18.888 67.8838 18.376 67.8198 17.88H70.7238L71.0598 21.192H70.5798C70.7398 20.392 71.0038 19.728 71.3718 19.2C71.7558 18.672 72.2198 18.28 72.7638 18.024C73.3078 17.768 73.8998 17.64 74.5398 17.64C74.8278 17.64 75.0598 17.656 75.2358 17.688C75.4118 17.704 75.5878 17.744 75.7638 17.808L75.7398 20.448C75.4358 20.32 75.1718 20.24 74.9478 20.208C74.7398 20.176 74.4758 20.16 74.1558 20.16C73.4678 20.16 72.8838 20.304 72.4038 20.592C71.9398 20.88 71.5878 21.28 71.3478 21.792C71.1238 22.304 71.0118 22.888 71.0118 23.544V30H67.9878ZM81.9965 30.24C80.9405 30.24 80.0125 29.992 79.2125 29.496C78.4125 28.984 77.7885 28.256 77.3405 27.312C76.8925 26.368 76.6685 25.24 76.6685 23.928C76.6685 22.616 76.8925 21.496 77.3405 20.568C77.7885 19.624 78.4125 18.904 79.2125 18.408C80.0125 17.896 80.9405 17.64 81.9965 17.64C83.0205 17.64 83.9165 17.896 84.6845 18.408C85.4685 18.904 85.9885 19.576 86.2445 20.424H85.9805L86.2445 17.88H89.1245C89.0765 18.376 89.0285 18.88 88.9805 19.392C88.9485 19.904 88.9325 20.408 88.9325 20.904V30H85.9565L85.9325 27.504H86.2205C85.9645 28.336 85.4445 29 84.6605 29.496C83.8765 29.992 82.9885 30.24 81.9965 30.24ZM82.8365 27.936C83.7805 27.936 84.5405 27.608 85.1165 26.952C85.6925 26.28 85.9805 25.272 85.9805 23.928C85.9805 22.584 85.6925 21.584 85.1165 20.928C84.5405 20.272 83.7805 19.944 82.8365 19.944C81.8925 19.944 81.1325 20.272 80.5565 20.928C79.9805 21.584 79.6925 22.584 79.6925 23.928C79.6925 25.272 79.9725 26.28 80.5325 26.952C81.1085 27.608 81.8765 27.936 82.8365 27.936ZM93.0153 30V20.136H90.6873V17.88H93.8553L93.0153 18.648V16.8C93.0153 15.296 93.3993 14.16 94.1673 13.392C94.9513 12.624 96.0953 12.24 97.5993 12.24C97.9513 12.24 98.3193 12.264 98.7033 12.312C99.1033 12.36 99.4473 12.448 99.7353 12.576V14.928C99.5273 14.848 99.2793 14.784 98.9913 14.736C98.7033 14.688 98.4233 14.664 98.1513 14.664C97.7353 14.664 97.3593 14.744 97.0233 14.904C96.7033 15.064 96.4473 15.312 96.2553 15.648C96.0793 15.968 95.9913 16.4 95.9913 16.944V18.408L95.5593 17.88H99.1833V20.136H96.0153V30H93.0153ZM105.598 30.24C104.542 30.24 103.614 29.992 102.814 29.496C102.014 28.984 101.39 28.256 100.942 27.312C100.494 26.368 100.27 25.24 100.27 23.928C100.27 22.616 100.494 21.496 100.942 20.568C101.39 19.624 102.014 18.904 102.814 18.408C103.614 17.896 104.542 17.64 105.598 17.64C106.622 17.64 107.518 17.896 108.286 18.408C109.07 18.904 109.59 19.576 109.846 20.424H109.582L109.846 17.88H112.726C112.678 18.376 112.63 18.88 112.582 19.392C112.55 19.904 112.534 20.408 112.534 20.904V30H109.558L109.534 27.504H109.822C109.566 28.336 109.046 29 108.262 29.496C107.478 29.992 106.59 30.24 105.598 30.24ZM106.438 27.936C107.382 27.936 108.142 27.608 108.718 26.952C109.294 26.28 109.582 25.272 109.582 23.928C109.582 22.584 109.294 21.584 108.718 20.928C108.142 20.272 107.382 19.944 106.438 19.944C105.494 19.944 104.734 20.272 104.158 20.928C103.582 21.584 103.294 22.584 103.294 23.928C103.294 25.272 103.574 26.28 104.134 26.952C104.71 27.608 105.478 27.936 106.438 27.936ZM115.801 30V12.336H118.801V30H115.801ZM127.675 35.376C126.555 35.376 125.539 35.256 124.627 35.016C123.731 34.776 122.931 34.408 122.227 33.912L122.875 31.752C123.339 32.056 123.819 32.304 124.315 32.496C124.811 32.688 125.323 32.832 125.851 32.928C126.379 33.024 126.915 33.072 127.459 33.072C128.579 33.072 129.411 32.792 129.955 32.232C130.515 31.688 130.795 30.904 130.795 29.88V26.976H131.035C130.779 27.808 130.259 28.472 129.475 28.968C128.707 29.464 127.819 29.712 126.811 29.712C125.723 29.712 124.771 29.472 123.955 28.992C123.155 28.496 122.531 27.792 122.083 26.88C121.635 25.968 121.411 24.896 121.411 23.664C121.411 22.432 121.635 21.368 122.083 20.472C122.531 19.56 123.155 18.864 123.955 18.384C124.771 17.888 125.723 17.64 126.811 17.64C127.835 17.64 128.723 17.888 129.475 18.384C130.243 18.864 130.755 19.52 131.011 20.352L130.795 20.208L131.035 17.88H133.939C133.875 18.376 133.827 18.88 133.795 19.392C133.763 19.904 133.747 20.408 133.747 20.904V29.52C133.747 31.424 133.227 32.872 132.187 33.864C131.163 34.872 129.659 35.376 127.675 35.376ZM127.627 27.408C128.587 27.408 129.347 27.088 129.907 26.448C130.483 25.792 130.771 24.864 130.771 23.664C130.771 22.464 130.483 21.544 129.907 20.904C129.347 20.264 128.587 19.944 127.627 19.944C126.651 19.944 125.875 20.264 125.299 20.904C124.723 21.544 124.435 22.464 124.435 23.664C124.435 24.864 124.723 25.792 125.299 26.448C125.875 27.088 126.651 27.408 127.627 27.408ZM141.668 30.24C140.612 30.24 139.684 29.992 138.884 29.496C138.084 28.984 137.46 28.256 137.012 27.312C136.564 26.368 136.34 25.24 136.34 23.928C136.34 22.616 136.564 21.496 137.012 20.568C137.46 19.624 138.084 18.904 138.884 18.408C139.684 17.896 140.612 17.64 141.668 17.64C142.692 17.64 143.588 17.896 144.356 18.408C145.14 18.904 145.66 19.576 145.916 20.424H145.652L145.916 17.88H148.796C148.748 18.376 148.7 18.88 148.652 19.392C148.62 19.904 148.604 20.408 148.604 20.904V30H145.628L145.604 27.504H145.892C145.636 28.336 145.116 29 144.332 29.496C143.548 29.992 142.66 30.24 141.668 30.24ZM142.508 27.936C143.452 27.936 144.212 27.608 144.788 26.952C145.364 26.28 145.652 25.272 145.652 23.928C145.652 22.584 145.364 21.584 144.788 20.928C144.212 20.272 143.452 19.944 142.508 19.944C141.564 19.944 140.804 20.272 140.228 20.928C139.652 21.584 139.364 22.584 139.364 23.928C139.364 25.272 139.644 26.28 140.204 26.952C140.78 27.608 141.548 27.936 142.508 27.936ZM151.847 30V20.976C151.847 20.464 151.831 19.944 151.799 19.416C151.783 18.888 151.743 18.376 151.679 17.88H154.583L154.919 21.192H154.439C154.599 20.392 154.863 19.728 155.231 19.2C155.615 18.672 156.079 18.28 156.623 18.024C157.167 17.768 157.759 17.64 158.399 17.64C158.687 17.64 158.919 17.656 159.095 17.688C159.271 17.704 159.447 17.744 159.623 17.808L159.599 20.448C159.295 20.32 159.031 20.24 158.807 20.208C158.599 20.176 158.335 20.16 158.015 20.16C157.327 20.16 156.743 20.304 156.263 20.592C155.799 20.88 155.447 21.28 155.207 21.792C154.983 22.304 154.871 22.888 154.871 23.544V30H151.847Z" fill="#233348"/>
<ellipse cx="20.8517" cy="20.5" rx="20.5276" ry="20.5" fill="#458FF6"/>
<path d="M19.6856 31V15.426H13.6276V12.67H29.0976V15.426H23.0396V31H19.6856Z" fill="white"/>
</svg>
